<svg width="96" height="145" viewBox="0 0 96 145" fill="none" xmlns="http://www.w3.org/2000/svg">
<g filter="url(#filter0_ii_453_3774)">
<path d="M24.0048 145C37.2502 145 48.0001 134.173 48.0001 120.833V96.6666H24.0048C10.7595 96.6666 0.00964355 107.493 0.00964355 120.833C0.00964355 134.173 10.7595 145 24.0048 145Z" fill="#0ACF83"/>
<path d="M0.00964355 72.4999C0.00964355 59.1599 10.7595 48.3333 24.0048 48.3333H48.0001V96.6666H24.0048C10.7595 96.6666 0.00964355 85.8399 0.00964355 72.4999Z" fill="#A259FF"/>
<path d="M0.00854492 24.1667C0.00854492 10.8267 10.7584 0 24.0037 0H47.999V48.3333H24.0037C10.7584 48.3333 0.00854492 37.5067 0.00854492 24.1667Z" fill="#F24E1E"/>
<path d="M48 0H71.9952C85.2406 0 95.9904 10.8267 95.9904 24.1667C95.9904 37.5067 85.2406 48.3333 71.9952 48.3333H48V0Z" fill="#FF7262"/>
<path d="M95.9904 72.4999C95.9904 85.8399 85.2406 96.6666 71.9952 96.6666C58.7499 96.6666 48 85.8399 48 72.4999C48 59.1599 58.7499 48.3333 71.9952 48.3333C85.2406 48.3333 95.9904 59.1599 95.9904 72.4999Z" fill="#1ABCFE"/>
</g>
<defs>
<filter id="filter0_ii_453_3774" x="0" y="-2" width="96" height="149" filterUnits="userSpaceOnUse" color-interpolation-filters="sRGB">
<feFlood flood-opacity="0" result="BackgroundImageFix"/>
<feBlend mode="normal" in="SourceGraphic" in2="BackgroundImageFix" result="shape"/>
<feColorMatrix in="SourceAlpha" type="matrix" values="0 0 0 0 0 0 0 0 0 0 0 0 0 0 0 0 0 0 127 0" result="hardAlpha"/>
<feOffset dy="2"/>
<feGaussianBlur stdDeviation="2"/>
<feComposite in2="hardAlpha" operator="arithmetic" k2="-1" k3="1"/>
<feColorMatrix type="matrix" values="0 0 0 0 1 0 0 0 0 1 0 0 0 0 1 0 0 0 0.25 0"/>
<feBlend mode="normal" in2="shape" result="effect1_innerShadow_453_3774"/>
<feColorMatrix in="SourceAlpha" type="matrix" values="0 0 0 0 0 0 0 0 0 0 0 0 0 0 0 0 0 0 127 0" result="hardAlpha"/>
<feOffset dy="-2"/>
<feGaussianBlur stdDeviation="2"/>
<feComposite in2="hardAlpha" operator="arithmetic" k2="-1" k3="1"/>
<feColorMatrix type="matrix" values="0 0 0 0 0 0 0 0 0 0 0 0 0 0 0 0 0 0 0.12 0"/>
<feBlend mode="normal" in2="effect1_innerShadow_453_3774" result="effect2_innerShadow_453_3774"/>
</filter>
</defs>
</svg>
