<svg width="1021" height="1202" viewBox="0 0 1021 1202" fill="none" xmlns="http://www.w3.org/2000/svg">
<path fill-rule="evenodd" clip-rule="evenodd" d="M996.082 678.472C981.802 679.874 967.523 681.274 953.244 682.676C884.856 687.901 816.495 698.813 748.63 705.362C746.94 702.612 743.633 703.065 741.625 704.976C734.853 704.383 727.264 699.207 721.129 704.591C720.93 704.563 720.731 704.53 720.53 704.511C709.608 683.548 702.058 661.189 694.731 638.8C690.054 625.035 683.762 611.71 672.134 602.468C652.29 588.693 606.822 560.76 583.521 561.934C583.134 557.762 581.189 553.462 577.996 550.684C585.034 538.685 556.893 530.856 554.908 532.247C556.18 492.159 537.323 457.345 495.743 449.362C458.492 441.6 405.51 440.296 385.476 479.225C383.273 478.977 360.762 478.86 358.584 479.104C355.198 474.815 318.008 515.457 333.251 529.606C196.978 589.888 119.493 582.695 81.7752 752.164C76.6761 768.084 76.3047 785.505 70.9203 801.07C51.764 845.801 36.2263 893.432 32.3594 942.104C23.0199 944.497 21.9459 960.964 32.7638 963.346C36.8959 964.257 40.3514 965.501 43.3645 967.86C41.0091 1007.75 50.6558 1098.86 56.734 1098.58C69.1275 1138.02 124.409 1149.15 163.547 1135.29C156.8 1147.99 163.547 1155.97 163.547 1162.75C304.374 1168.08 458.353 1165.01 599.141 1172.32C617.15 1172.06 636.093 1176.74 653.856 1174.05C664.688 1171.45 664.706 1154.42 653.718 1152.31L701.731 1141.88C700.658 1141.48 721.522 1127.6 737.291 1101.67C751.969 1072.66 741.979 1037.64 748.63 1006.08C800.575 1001.83 853.378 1000.02 904.754 991.22C911.759 1012.18 942.082 987.113 951.721 977.03C951.709 977.014 951.697 976.999 951.685 976.983C956.35 975.707 960.091 971.335 960.216 966.159C963.487 961.485 964.174 954.897 961.036 950.38C975.415 867.412 997.335 782.7 1005.26 698.952C1008.06 698.332 1010.7 697.104 1012.93 695.212L1012.75 695.031C1016.54 690.807 1017.28 683.516 1010.96 679.927C1005.87 677.029 1001.61 677.928 996.082 678.472Z" fill="#EDB98A"/>
<path fill-rule="evenodd" clip-rule="evenodd" d="M453 989L464 996L554 1025L609 1032L654 1025V1102L663 1174C659 1181.33 621 1181.33 549 1174C503.102 1169.33 335.356 1167.06 297.164 1166.06L295 1166C250.12 1164.71 205.787 1164.71 162 1166V1139L287 1077L399 1014L453 989ZM389.229 472.932L397.495 479.104L379.448 508.754L467.361 579.865V636.664L495.193 662.988L511.102 636.664L533.519 606.852L549.45 558.528L544.026 526.692L554.934 525.664C554.987 527.84 554.978 530.036 554.908 532.247C556.893 530.856 585.034 538.685 577.996 550.684C581.189 553.462 583.134 557.762 583.521 561.934C606.822 560.76 652.29 588.693 672.134 602.468C683.762 611.71 690.054 625.035 694.731 638.8L695.832 642.158L696.969 645.605L698.114 649.05C704.443 667.985 711.276 686.749 720.53 704.511C720.731 704.53 720.93 704.563 721.129 704.591C727.264 699.207 734.853 704.383 741.625 704.976C743.586 703.11 746.787 702.634 748.51 705.175L748.63 705.362L664.259 721.983L608.598 917.227L560.126 877.881L534.108 881.75L465.399 906.531L385.486 927.289L203.055 977.584H179.824L44.639 944.939L32.4561 940.918C36.4792 892.658 51.9197 845.438 70.9204 801.07C76.3048 785.505 76.6762 768.084 81.7753 752.164C119.493 582.695 196.978 589.888 333.251 529.606C318.008 515.457 355.198 474.815 358.584 479.104L358.798 479.085L359.259 479.061L359.854 479.04C365.17 478.885 383.5 479.003 385.476 479.225C386.622 476.998 387.876 474.902 389.229 472.932Z" fill="#2429AF"/>
<path fill-rule="evenodd" clip-rule="evenodd" d="M1009.57 684.4L1007.05 698.405C1006.46 698.601 1005.85 698.766 1005.23 698.903C1004.44 707.251 1003.51 715.61 1002.47 723.975L986.887 810.814C984.2 826.178 981.649 841.574 979.116 856.975L975.76 873.518L973.682 883.8C969.195 906.066 964.837 928.26 961.012 950.331C961.589 951.162 962.037 952.063 962.363 953.01L962.069 954.254L961.864 955.083L961.655 955.903C958.637 967.503 953.386 978.753 941.011 982.166C931.677 984.74 921.435 984.973 911.797 985.989L910.728 986.105L742.069 1005.07C721.69 1007.36 701.321 1009.72 680.953 1012.11L663.296 1014.18C638.686 1017.03 613.934 1019.27 589.686 1024.43C588.795 1024.62 588.057 1024.98 587.455 1025.45C592.338 1006.96 597.012 988.503 601.248 969.833C606.016 948.82 610.541 927.766 615.641 906.829C625.915 864.649 637.432 822.746 650.04 781.203C652.686 772.484 655.393 763.782 658.159 755.101L660.101 749.032L661.595 744.196C663.906 736.823 666.767 729.245 673.546 725.177C681.48 720.417 692.299 719.628 701.297 717.982L707.39 716.837C716.506 715.136 725.634 713.5 734.773 711.928C778.529 704.402 822.533 698.365 866.699 693.83C912.657 689.111 958.776 686.044 1004.95 684.545L1009.57 684.4ZM590.95 973.943L591.38 973.979L585.08 1024.34C584.073 1023.64 582.794 1023.2 581.233 1023.21C560.569 1023.27 540.76 1016.66 521.6 1009.4L518.682 1008.29L510.547 1005.16C502.278 1002 493.965 998.898 485.497 996.328L482.074 995.295L480.334 994.782C473.923 992.91 467.178 991.209 460.509 990.785L459.6 990.735L461.542 989.716C461.826 989.567 462.075 989.4 462.296 989.22C465.967 989.492 469.645 989.418 473.517 988.72C480.799 987.409 487.88 984.876 494.382 981.349L497.286 979.775L498.475 979.145L499.26 978.738L500.041 978.343C505.626 975.559 510.965 973.816 518.016 975.298C526.021 976.983 533.035 981.297 540.25 984.942L541.531 985.58L542.392 985.996L543.269 986.409L544.158 986.814C553.915 991.205 569.443 995.943 573.184 982.677C574.687 977.347 573.51 972.356 570.902 967.98C575.762 967.56 584.445 973.29 590.95 973.943ZM833.828 808.016L833.945 808.62C835.325 816.047 831.865 823.153 826.629 828.332C822.334 832.58 814.733 834.941 812.58 841.052C811.354 844.529 812.658 847.826 815.176 850.125L814.596 850.412L814.029 850.702L813.476 850.994L812.936 851.289L812.41 851.586C803.856 856.501 796.89 864.492 804.605 874.145C813.357 885.096 831.644 885.451 844.528 884.594L845.396 884.533C857.89 883.597 872.689 879.4 879.463 867.864C882.57 862.572 882.228 856.172 877.897 851.643C875.284 848.911 870.623 846.105 866.349 845.773C866.536 843.365 866.249 841.039 865.402 839.076C863.57 834.833 858.695 831.976 853.993 831.873C854.374 822.864 847.158 813.97 841.844 806.768L841.302 806.029L840.775 805.302C838.337 801.91 833.121 803.811 833.828 808.016ZM840.957 817.605L845.798 835.739L845.715 835.889C844.01 839.127 848.48 842.802 851.131 840.082L851.398 839.794C854.545 836.544 859.375 840.913 859.435 844.371C859.521 849.241 856.351 853.005 852.574 855.493L852.31 855.664L851.614 856.097C848.514 858.145 850.861 862.428 854.268 861.906C858.484 861.261 861.939 857.917 864.069 853.742C866.345 854.394 868.935 854.315 871.332 855.656C877.372 859.034 873.898 864.944 869.965 868.516L869.805 868.659L869.485 868.938C862.269 875.092 852.444 877.23 843.183 877.688L842.649 877.712C833.294 878.112 821.106 878.246 813.088 872.744C808.098 869.32 806.653 864.464 810.876 859.865C813.264 857.266 815.675 854.644 818.157 852.11C821.872 853.883 825.19 853.164 828.989 851.486C829.476 851.27 829.206 850.525 828.729 850.525C826.633 850.523 818.942 846.632 818.568 844.146C818.223 841.845 822.477 839.906 824.546 838.794L824.846 838.629L825.106 838.478C827.27 837.167 829.307 835.641 831.169 833.927C835.895 829.577 839.327 824.121 840.826 818.15L840.957 817.605Z" fill="white"/>
<path fill-rule="evenodd" clip-rule="evenodd" d="M388.072 470.184C392.315 459.521 406.658 463.666 405.059 474.868C404.102 481.578 400.427 488.665 397.126 494.546C394.438 499.333 391.372 504.005 387.215 507.593C394.615 514.497 402.296 521.149 410.172 527.465C418.766 534.356 427.803 540.708 437.144 546.546C445.335 551.666 453.896 556.202 461.617 562.044C468.796 567.475 475.336 574.007 478.664 582.534C482.209 591.614 480.668 600.992 478.058 610.066L477.758 611.092C475.091 620.082 470.474 630.919 476.876 639.389C480.135 643.701 484.873 646.755 488.964 650.202C492.6 653.266 496.013 656.598 499.143 660.177C505.968 667.979 511.519 676.758 515.022 686.54L515.335 687.429C518.338 696.088 520.532 706.696 516.475 715.198C515.311 717.635 511.557 716.843 510.905 714.47C509.431 709.094 509.508 703.464 508.272 698.012C506.986 692.342 504.846 686.96 502.051 681.868C496.643 672.017 489.319 663.603 480.666 656.489L478.076 654.383C471.326 648.843 465.124 642.966 463.754 633.798C462.288 623.989 466.218 614.645 468.745 605.361C470.506 598.891 471.081 592.689 469.178 586.842C466.853 590.637 463.681 594.239 461.172 597.452C456.175 603.853 451.131 610.215 446.1 616.589C440.942 623.125 435.911 629.764 431.12 636.575C428.977 639.622 426.857 642.687 424.744 645.755C423.155 648.061 420.939 650.365 419.207 652.717C419.628 653.975 419.596 655.425 418.833 656.455C409.648 668.865 396.581 642.971 393.173 636.429C386.233 623.106 381.068 608.952 374.105 595.632C366.89 581.824 358.674 568.384 349.517 555.778C343.978 548.153 337.77 540.991 332.703 533.124C320.766 543.948 305.058 551.204 290.63 557.784C274.777 565.013 258.308 570.918 242.055 577.188L237.254 579.053C209.249 589.983 180.56 601.99 157.283 621.403C129.93 644.216 113.748 676.012 101.701 708.938C87.8328 746.843 76.3598 785.771 65.6648 824.674C60.1918 844.579 54.9988 864.574 50.1168 884.633C45.8148 902.305 42.2488 920.153 37.2688 937.643C47.3688 937.286 58.8878 941.196 67.5108 942.325C106.81 947.469 145.58 955.669 182.683 969.866C187.266 971.62 188.592 976.197 187.594 979.907C190.237 979.161 192.878 978.405 195.521 977.663C192.625 973.226 194.007 965.294 194.235 960.376L194.249 960.038C194.483 953.485 195.194 946.925 195.655 940.384C196.533 927.915 197.675 915.537 199.195 903.14L199.583 900.04C201.305 886.552 202.578 872.985 204.457 859.52L204.679 857.979C203.778 854.534 202.729 851.131 201.628 847.743C198.694 838.718 194.553 830.223 190.924 821.482C190.496 820.453 191.962 819.862 192.647 820.479C198.793 826.008 203.675 833.022 207.597 840.358C207.665 840.012 207.725 839.665 207.796 839.319L208.243 837.116C209.347 831.744 210.689 826.092 213.985 821.735C214.336 821.272 215.03 821.175 215.362 821.735C218.516 827.072 218.869 833.831 219.354 839.904C219.903 846.774 219.972 853.731 219.875 860.62C219.686 874.083 218.737 887.584 217.981 901.025C217.239 914.233 215.783 927.274 213.906 940.352L213.549 942.805C212.631 949.03 211.88 955.333 210.67 961.515L210.328 963.198C209.681 966.264 209.283 970.587 207.995 974.178C241.133 964.935 274.322 955.903 307.574 947.03C331.607 940.616 355.665 934.298 379.713 927.94C380.982 925.653 382.562 923.517 384.534 921.608C391.031 915.316 399.641 912.509 407.538 917.352C408.18 917.747 408.234 918.753 407.538 919.134C406.025 919.961 404.509 920.809 403.02 921.693L417.46 917.782C428.253 914.857 439.175 911.202 450.222 909.163C470.569 899.122 492.453 891.854 513.887 884.671L516.413 883.817C527.387 880.075 538.739 875.886 550.078 873.812C558.379 872.294 568.123 874.126 571.461 882.63C575.687 885.415 579.663 888.688 583.5 891.907C586.274 894.233 588.933 896.706 591.637 899.114L592.135 899.552C594.346 901.47 596.097 902.754 596.64 905.807C596.92 907.384 595.918 909.516 593.973 909.307C588.022 908.67 583.183 901.772 579.147 897.653C576.029 894.469 572.886 891.177 570.04 887.678C568.381 888.581 566.107 888.419 565.051 886.419C559.575 876.05 544.574 883.235 536.274 885.694L524.384 889.213C518.439 890.975 512.497 892.746 506.565 894.548C490.261 899.499 474.037 905.04 457.585 909.587C459.057 911.205 458.854 914.083 456.058 915.178C443.18 920.231 429.052 922.844 415.673 926.311C407.226 928.502 398.784 930.706 390.345 932.923C388.898 935.267 387.857 937.919 387.419 941.006C385.808 952.357 388.914 965.453 391.94 976.431L392.396 978.069C394.883 986.895 398.542 997.715 406.157 1003.29C408.016 1004.65 410.383 1005.59 412.769 1005.81C427.676 998.134 442.582 990.462 457.497 982.804C460.26 981.385 462.813 983.306 463.433 985.59C468.692 984.727 473.939 983.367 478.718 981.745C486.748 979.018 493.018 973.817 500.546 970.22C515.112 963.262 529.987 971.809 543.028 978.307L546.034 979.784C551.882 982.622 564.049 988.073 566.856 980.312C569.57 972.804 560.989 964.78 555.447 961.401C548.841 957.372 541.149 955.216 533.683 953.42C529.42 952.394 525.105 951.557 520.764 950.946C515.84 950.253 510.754 950.357 506.013 948.76C503.657 947.968 503.295 944.226 506.013 943.608C513.311 941.947 522.021 943.759 529.637 945.61L533.618 946.591C541.291 948.474 549.038 950.837 556.027 954.593C561.109 957.325 566.473 961.475 569.977 966.555C573.02 963.728 576.807 963.824 580.752 964.872L582.893 965.468C586.429 966.447 589.295 967.122 592.736 966.443C593.196 963.94 593.662 961.436 594.161 958.932C599.064 934.318 604.441 909.798 610.374 885.409C620.608 843.341 632.45 801.735 645.8 760.556L647.14 756.439C650.219 747.02 652.697 736.758 657.661 728.105C662.356 719.923 669.878 715.21 678.815 712.714C688.957 709.882 699.614 708.4 709.96 706.487C712.268 706.061 714.582 705.656 716.892 705.237C714.94 701.712 713.482 697.711 712.17 694.641L711.94 694.109C709.12 687.68 706.587 681.136 704.141 674.556L702.312 669.61C697.895 657.699 693.336 645.984 687.127 634.844C680.591 623.12 671.92 613.535 661.111 605.602C639.073 589.426 612.51 581.175 591.135 563.888C590.259 563.18 591.382 561.969 592.271 562.417C606.704 569.669 622.285 574.6 637.297 580.504L640.258 581.672C652.124 586.376 664.174 591.497 674.444 599.112C685.894 607.604 694.912 618.15 701.69 630.691C708.37 643.053 712.643 656.89 717.356 670.094L718.616 673.612C720.517 678.888 722.481 684.148 724.731 689.282C726.517 693.358 729.85 698.011 731.365 702.667C735.51 701.948 739.654 701.227 743.803 700.534C833.67 685.53 924.541 676.714 1015.61 674.135C1019.18 674.034 1021.02 677.434 1020.49 680.542C1011.75 732.223 1003.99 784.081 995.466 835.801C991.746 858.374 987.952 880.93 984.069 903.475C982.102 914.897 979.828 926.275 977.965 937.714C976.461 946.952 975.369 956.262 972.787 965.286C970.471 973.377 966.917 981.179 961.08 987.352C954.788 994.006 946.006 997.227 937.166 998.749C914.725 1002.61 891.707 1004.19 869.084 1006.76L748.637 1020.46C750.397 1036.46 750.529 1052.21 749.721 1068.4L749.261 1077.23C748.884 1084.34 748.435 1091.46 747.414 1098.49C746.134 1107.31 742.098 1114.78 736.153 1121.37C730.694 1127.43 724.062 1132.59 717.611 1137.54C710.915 1142.68 703.996 1147.64 696.123 1150.81L695.101 1151.22C688.194 1153.91 675.237 1158.09 665.797 1156.56C667.031 1162.75 669.419 1169.4 667.302 1175.51C666.32 1178.35 662.605 1179.77 660.329 1177.35C655.82 1172.56 655.468 1166.24 654.4 1159.99C653.289 1153.48 652.331 1146.95 651.48 1140.41C649.834 1127.76 648.553 1114.99 648.162 1102.24C647.76 1089.13 647.915 1076.01 648.621 1062.93C648.984 1056.2 649.434 1049.49 650.287 1042.81C650.651 1039.96 651.023 1037.11 651.448 1034.27C651.603 1033.23 651.775 1032.2 651.96 1031.17L641.149 1032.39C624.572 1034.24 607.988 1035.92 591.294 1036.18C589.317 1036.21 587.796 1035.3 586.802 1033.99C585.743 1035.72 583.899 1036.95 581.258 1036.94C557.945 1036.86 536.235 1029.23 515.031 1020.25C504.343 1015.72 493.821 1010.82 483.117 1006.32C473.126 1002.13 462.445 999.141 452.695 994.419L427.075 1007.86C426.887 1008.52 426.646 1009.14 426.39 1009.67C424.722 1013.07 421.433 1014.92 418.074 1016.31C414.85 1017.65 411.511 1018.06 408.258 1017.73C388.828 1027.91 369.393 1038.08 349.945 1048.23L330.493 1058.37C291.737 1078.55 253.134 1099.06 214.134 1118.76L211.263 1120.21C197.792 1126.96 183.327 1133.81 168.378 1138.92C168.112 1142.7 168.28 1146.38 168.597 1150.39L168.673 1151.26C169.119 1155.99 170.075 1161.92 166.278 1165.29C164.303 1167.04 160.775 1167.05 159.432 1164.41C156.995 1159.62 159.183 1152.07 159.955 1146.86C160.229 1145.01 160.563 1143.11 161.057 1141.26C143.919 1146.36 126.262 1148.84 108.822 1145.97C91.8418 1143.18 78.6908 1132.49 68.0888 1119.4C56.8998 1105.6 48.9488 1089.51 44.6828 1072.26C39.8278 1052.63 39.5108 1032.36 39.6248 1012.25C39.7458 990.844 40.5378 969.329 43.1418 948.064C40.2888 947.393 37.1248 946.813 34.2418 947.013C32.8138 949.298 30.0438 950.26 27.5408 949.963C22.0978 955.966 35.9038 962.101 40.3158 963.637C41.8478 964.171 41.6838 966.659 39.9168 966.584L38.8038 966.531C31.9864 966.168 24.9432 965.004 20.9348 958.669C17.7228 953.591 18.6878 947.575 22.5168 943.434C25.0458 919.522 31.0918 896.237 36.7188 872.911C42.2408 850.016 48.3818 827.268 54.8908 804.635L57.8088 794.505C68.0571 759.016 78.7692 723.241 92.9058 689.163C99.9648 672.147 108.097 655.444 119.12 640.607C129.395 626.776 141.526 614.941 155.47 604.833C181.465 585.987 211.967 574.6 241.937 563.751L243.279 563.266C258.81 557.648 274.303 551.963 289.657 545.876C303.236 540.493 316.245 533.668 329.76 528.204C329.321 527.407 328.897 526.601 328.489 525.786L328.239 525.996C328.196 526.03 328.152 526.063 328.107 526.094C326.748 527.036 324.747 526.573 323.627 525.516C320.464 522.532 321.535 519.22 323.646 516.125L323.921 515.731C326.503 512.114 328.806 508.29 331.189 504.542L332.681 502.198C336.681 495.937 340.884 489.633 346.218 484.458C348.688 482.06 351.392 480.266 354.257 478.929C354.012 478.411 356.16 477.352 356.769 477.885C365.846 474.563 376.289 475.259 386.185 476.175M742.809 1021.13L730.189 1022.56C716.305 1024.14 702.415 1025.67 688.524 1027.18L658.352 1030.46C658.275 1032.18 658.066 1033.86 658.028 1035.16C657.831 1041.86 657.684 1048.56 657.545 1055.26C657.266 1068.69 657.572 1082.13 658.456 1095.53C659.313 1108.51 660.441 1121.5 662.195 1134.4L662.554 1136.98L662.762 1138.34C664.193 1138.47 665.599 1139.15 666.768 1140.55C669.32 1143.6 678.561 1140.64 682.17 1139.35C688.105 1137.24 693.694 1133.67 698.851 1130.09C703.887 1126.6 708.422 1122.53 712.78 1118.23L716.345 1114.71C719.892 1111.18 723.443 1107.43 725.616 1103C728.563 1096.98 728.944 1089.6 729.808 1083.06C730.872 1075 732.139 1066.95 733.478 1058.93M376.454 936.584L375.145 936.928C327.594 949.563 280.114 962.571 232.417 974.648C208.813 980.626 185.097 986.169 161.464 992.032L157.638 992.989C138.994 997.701 120.126 1003.37 105.849 1016.9C105.322 1017.39 104.557 1016.63 105.053 1016.1C120.44 999.719 142.324 992.785 163.336 986.774C167.22 985.663 171.109 984.578 174.994 983.473C146.418 973.286 117.391 964.423 87.6938 958.102C80.0468 956.474 72.3108 955.279 64.6698 953.645C59.3409 952.505 54.1367 950.857 48.8641 949.489L44.7168 948.446L44.6617 961.554C44.5927 980.119 44.6257 998.669 45.5728 1017.23L45.7521 1020.67C46.8572 1041.33 48.5821 1062.41 55.9128 1081.89C61.8698 1097.72 71.3648 1112.63 83.7818 1124.16C90.0648 1129.99 96.8198 1134.53 105.17 1136.78C112.923 1138.86 121.046 1139.1 129.016 1138.55C167.245 1135.88 201.275 1115.11 234.483 1097.92C288.8 1069.79 343.123 1041.69 397.495 1013.67C396.025 1012.67 394.641 1011.51 393.382 1010.21C386.091 1002.68 382.245 992.368 379.719 982.385C377.03 971.759 375.422 960.37 375.235 949.4M445.637 1024.53C446.117 1024.27 446.673 1024.59 446.695 1025.13C446.863 1029.29 444.568 1033.38 442.853 1037.12L442.672 1037.52C440.589 1042.16 438.308 1046.73 435.949 1051.23C431.234 1060.22 426.334 1069.11 421.22 1077.88C410.936 1095.52 399.508 1112.42 386 1127.78C382.949 1131.25 377.931 1126.8 379.889 1123.07C389.329 1105.06 400.334 1088.05 411.662 1071.2C417.333 1062.76 423 1054.31 428.727 1045.91C431.116 1042.4 433.536 1038.91 436.021 1035.47L437.52 1033.41M1009.59 684.45C961.875 685.891 914.214 689.003 866.724 693.88C822.558 698.415 778.554 704.452 734.798 711.978C725.659 713.55 716.531 715.186 707.414 716.887L701.946 717.915C692.828 719.643 681.689 720.356 673.571 725.227C665.012 730.362 662.699 741.094 659.851 749.944C656.503 760.352 653.24 770.79 650.065 781.253C637.457 822.796 625.94 864.699 615.666 906.879C610.566 927.816 606.041 948.87 601.273 969.883C597.037 988.553 592.363 1007.01 587.48 1025.5C588.082 1025.03 588.82 1024.67 589.711 1024.48C613.959 1019.32 638.71 1017.08 663.321 1014.23L665.702 1013.95C691.161 1010.96 716.62 1007.99 742.094 1005.12L910.753 986.155C920.7 985.037 931.356 984.885 941.036 982.216C957.494 977.676 961.351 959.276 964.112 944.623L964.196 944.18C972.521 899.907 979.148 855.249 986.912 810.864M591.405 974.029C584.857 973.597 575.895 967.6 570.927 968.03C573.535 972.406 574.712 977.397 573.209 982.727C569.026 997.559 550.109 989.885 540.997 985.354C533.526 981.637 526.312 977.089 518.041 975.348C508.671 973.378 502.323 977.104 494.407 981.399C487.905 984.926 480.824 987.459 473.542 988.77C469.67 989.468 465.992 989.542 462.321 989.27C462.1 989.45 461.851 989.617 461.567 989.766L459.625 990.785C468.406 991.187 477.35 993.897 485.522 996.378C493.99 998.948 502.303 1002.05 510.572 1005.21L518.706 1008.34C538.772 1016.02 559.542 1023.32 581.258 1023.26C582.819 1023.25 584.098 1023.69 585.105 1024.39M554.769 927.555C561.238 926.764 567.209 927.612 572.378 931.823C578.612 936.901 582.8 945.323 591.762 945.876C594.375 946.037 594.982 949.711 592.385 950.479C585.714 952.454 580.313 948.845 575.768 944.159L572.712 940.966C568.221 936.316 564.078 932.72 556.457 932.998C548.295 933.296 540.119 935.182 532.01 936.141C522.824 937.227 513.64 938.153 504.425 938.952C503.997 938.989 503.924 938.315 504.325 938.216L514.646 935.647M548.525 901.109L549.592 901.002C558.985 900.09 567.576 900.055 575.966 905.108L577.575 906.081C585.139 910.678 593.372 916.095 598.102 923.538C598.876 924.757 597.597 926.19 596.302 925.88C587.211 923.698 580.565 917.028 572.92 912.036C564.34 906.434 555.477 907.358 545.694 908.228C536.222 909.071 526.755 910.229 517.376 911.808C508.563 913.29 499.722 915.63 490.82 916.376L490.822 916.358C489.805 916.356 489.225 914.829 490.262 914.311C499.296 909.8 509.759 907.665 519.586 905.604M833.89 808.264C832.982 803.921 838.324 801.907 840.8 805.352L841.326 806.079C846.675 813.407 854.411 822.603 854.018 831.923C858.72 832.026 863.595 834.883 865.427 839.126C866.274 841.089 866.561 843.415 866.374 845.823C870.648 846.155 875.309 848.961 877.922 851.693C882.253 856.222 882.595 862.622 879.488 867.914C872.713 879.45 857.914 883.646 845.421 884.583L844.976 884.615C832.072 885.507 813.478 885.266 804.63 874.195C796.095 863.516 805.528 854.87 815.201 850.175C812.683 847.876 811.379 844.579 812.605 841.102C814.758 834.991 822.359 832.63 826.654 828.382C831.889 823.202 835.349 816.097 833.97 808.669M840.982 817.655C839.558 823.839 836.062 829.495 831.193 833.977C829.331 835.691 827.294 837.217 825.13 838.528L824.87 838.679C822.95 839.757 818.229 841.777 818.592 844.196C818.966 846.682 826.657 850.573 828.753 850.575C829.23 850.575 829.5 851.32 829.013 851.536C825.214 853.214 821.896 853.933 818.182 852.16C815.7 854.694 813.289 857.316 810.901 859.915C806.677 864.514 808.122 869.37 813.112 872.794C821.13 878.296 833.318 878.162 842.674 877.762C852.089 877.36 862.154 875.26 869.51 868.988L869.83 868.709C873.827 865.154 877.478 859.13 871.357 855.706C868.959 854.365 866.37 854.444 864.094 853.792C861.964 857.967 858.508 861.311 854.292 861.956C850.885 862.477 848.539 858.195 851.638 856.146L852.334 855.714C856.226 853.23 859.547 849.404 859.459 844.421C859.399 840.962 854.569 836.594 851.422 839.844L851.279 839.999C848.645 842.967 844.008 839.227 845.739 835.938L845.823 835.789M226.862 645.676C226.85 644.933 227.895 644.655 228.26 645.298C234.372 656.051 237.568 669.232 240.824 681.079C244.234 693.489 246.986 706.025 249.46 718.653C254.469 744.224 257.137 769.648 257.319 795.71C257.344 799.431 251.281 800.421 250.688 796.608C246.751 771.257 242.979 745.88 239.012 720.536C237.016 707.789 234.693 695.091 232.471 682.382M287.371 664.405C286.921 662.922 289.078 662.426 289.63 663.782C301.897 693.891 306.051 728.013 298.176 759.778C296.97 764.637 289.854 762.532 290.763 757.734M445.588 637.651C445.526 636.541 446.967 636.366 447.51 637.13C453.322 645.319 455.733 656.286 465.93 660.518C471.021 662.631 476.75 662.263 481.248 665.832C484.255 668.219 486.561 671.987 484.304 675.602C483.576 676.77 481.538 677.355 480.55 676.086C479.108 674.237 478.345 672.023 476.386 670.637C473.623 668.682 469.897 668.561 466.729 667.642C462.631 666.454 459.019 664.375 456.061 661.286M542.686 501.067C543.285 500.762 543.86 500.957 544.243 501.475C544.79 502.213 544.723 502.931 544.053 503.437C544.948 505.266 546.005 509.848 546.156 510.515C546.768 513.219 547.419 515.907 548.1 518.593C549.474 524.01 550.678 529.469 552.053 534.888C553.511 540.632 555.248 546.315 557.181 551.916C557.306 552.279 557.443 552.649 557.587 553.025L557.807 553.592L557.861 553.506C558.254 552.885 559.072 553.319 558.975 553.975C558.885 554.573 558.764 555.168 558.662 555.766L558.865 556.302C560.129 559.705 560.995 563.289 558.675 566.292C557.807 567.415 556.852 568.08 555.662 568.278C553.754 574.568 551.36 580.741 548.797 586.669L548.046 588.401C544.276 597.051 540.255 605.587 534.252 612.951C527.698 620.991 518.683 626.481 512.974 635.291C510.318 639.389 508.47 643.698 506.97 648.326L506.406 650.083C505.341 653.357 504.113 656.529 501.042 658.449C500.062 659.061 498.594 658.866 497.804 658.031C491.507 651.37 498.099 638.932 501.896 632.483C507.174 623.515 514.813 617.778 522.462 611.012C530.707 603.719 535.966 593.963 541.053 584.352C544.169 578.464 547.177 572.449 550.344 566.535C547.035 563.611 545.976 557.802 544.855 553.764L544.753 553.402C542.9 546.936 541.428 540.302 540.498 533.639C539.603 527.233 539.23 520.918 539.466 514.476L539.535 512.835M554.988 531.559C554.257 530.557 555.467 529.422 556.47 529.631C562.569 530.892 568.531 534.583 574.004 537.568L574.588 537.885C578.957 540.241 583.353 543.127 585.647 547.704C588.142 552.679 587.937 558.408 587.597 563.814L587.564 564.32C587.147 570.803 587.08 577.539 585.708 583.905C585.006 587.163 582.055 588.081 579.532 587.311C576.53 596.79 568.097 603.774 561.937 611.254C554.083 620.79 555.561 633.665 556.382 645.15C556.714 649.8 550.93 651.122 547.951 648.641L541.086 642.939C539.943 641.987 538.801 641.034 537.662 640.076C536.687 639.256 535.721 638.429 534.762 637.591L533.33 636.327C532.695 635.759 529.894 632.63 529.075 632.5C527.092 632.185 522.379 637.413 520.766 639.053L520.561 639.257C517.525 642.234 514.782 645.437 512.227 648.834C511.757 649.458 510.838 648.94 511.174 648.219C513.464 643.315 516.126 638.626 519.287 634.238L519.925 633.364C522.028 630.53 524.851 625.526 528.563 624.689C533.096 623.668 537.622 628.213 540.92 630.736L541.128 630.894C542.697 632.071 544.248 633.269 545.796 634.475C545.634 625.924 546.714 617.284 551.129 609.915C554.242 604.718 558.906 600.869 562.897 596.403C567.34 591.43 569.66 585.318 573.682 580.139C574.2 579.473 574.914 579.114 575.687 579C575.842 574.837 576.455 570.632 576.929 566.513L577.066 565.28C577.545 560.805 578.677 555.339 576.486 551.148C574.417 547.19 569.668 544.396 566.152 541.71L563.28 539.483M357.074 484.241C355.238 485.303 353.522 486.624 351.965 488.275C347.064 493.474 343.56 499.944 340.15 506.168C338.314 509.52 336.544 512.909 334.693 516.253C333.888 517.708 333.06 519.147 332.223 520.584C331.836 521.246 330.686 522.562 330.116 523.373C330.749 524.26 331.404 525.134 332.072 525.999C332.327 526.328 349.908 545.48 356.036 552.975C365.42 564.456 373.808 576.583 380.979 589.563C388.001 602.274 393.347 615.732 399.852 628.689C403.108 635.176 406.744 641.617 411.379 647.231C411.558 647.45 411.747 647.657 411.93 647.873C413.699 643.094 418.232 637.977 420.458 635.039L420.666 634.762C425.715 627.956 431.047 621.355 436.495 614.866C441.471 608.941 446.573 603.143 451.799 597.442L453.765 595.308C457.406 591.375 462.031 585.49 467.361 582.68C466.79 581.662 466.129 580.655 465.369 579.661C460.375 573.135 453.315 568.399 446.35 564.126L441.832 561.378C424.804 551.001 408.042 540.144 393.259 526.661C385.438 519.527 377.725 512.054 371.151 503.733L368.826 500.791M385.486 479.104C377.512 479.773 368.901 479.614 361.532 482.212C368.083 488.405 374.31 495.092 380.707 501.389C381.276 497.13 382.44 492.923 383.426 488.77" fill="black"/>
<path fill-rule="evenodd" clip-rule="evenodd" d="M629.263 225.318C640.641 217.146 623.675 190.259 617.911 182.259C612.897 171.823 607.883 161.386 602.868 150.949C603.478 142.39 595.12 134.775 586.861 137.379C579.676 132.226 567.642 134.693 563.99 142.761C484.543 108.159 347.077 122.554 339.968 229.326C324.6 259.726 309.368 290.386 295.733 321.607C276.815 322.623 267.645 345.606 278.908 360.459C280.407 384.578 295.698 386.487 316.112 385.414C324.31 387.573 332.808 388.743 338.956 395.074C343.629 399.849 346.805 405.904 349.87 411.779C364.015 438.885 381.986 462.333 406.346 481.084C444.229 509.435 495.511 529.79 542.749 515.989C644.306 476.107 664.25 316.721 629.263 225.318Z" fill="#EDB98A"/>
<path fill-rule="evenodd" clip-rule="evenodd" d="M417.32 69.9931C483.67 54.5831 558.21 75.2631 604.26 126.213C607.5 129.793 607.15 134.453 604.3 137.473C605.63 138.553 606.93 139.663 608.25 140.773C609.63 141.943 609.43 144.293 608.25 145.483C607.08 146.653 604.65 146.893 603.54 145.483L601.897 143.415C601.079 142.382 600.27 141.345 599.49 140.283C598.54 140.633 597.61 141.003 596.68 141.363C610.75 150.713 622.48 163.133 630.52 178.083C639.22 194.253 644.77 211.513 648.38 229.473C654.815 261.511 655.748 294.369 654.888 326.948L654.84 328.693C653.73 367.963 649.9 407.883 633.34 443.993C620.06 472.933 596.46 499.543 566.87 512.213C549.83 519.503 531.51 522.613 513 521.313C503.24 520.633 493.51 519.093 484.01 516.743L481.728 516.176C473.073 514.009 464.098 511.496 456.71 506.543C449.13 501.453 454.24 491.343 462.6 492.573C472.67 494.063 482.26 498.263 492.25 500.443C502.02 502.583 511.91 503.703 521.92 503.413C539.63 502.913 555.76 497.473 570.4 487.593C626.37 449.803 633.17 373.823 634.63 312.423C635.34 282.423 634.24 252.033 627.34 222.723C620.71 194.543 609.3 166.793 593.15 142.723C589.59 144.053 586.03 145.163 582.24 145.513C575.484 149.574 567.45 149.682 559.638 149.683L558.55 149.683C550.42 149.673 542.29 149.193 534.2 148.463C505.57 145.923 476.11 139.483 447.33 143.583L446.154 143.755C434.304 145.537 419.62 149.277 410.92 157.803C401.52 167.003 407.82 184.413 415.26 189.943C420.07 193.523 421.57 201.583 415.26 204.833C402.8 211.263 372.64 207.693 369.25 211.253C365.18 215.508 365.465 221.994 365.348 227.516L365.34 227.883C364.92 243.603 365.31 259.273 366.64 274.953C367.92 290.113 370.83 305.303 371.48 320.503C371.7 325.513 365.65 327.033 362.34 324.283C361.69 323.743 361.02 323.233 360.35 322.773C354.34 318.513 347.51 316.713 340.18 315.573C339.795 315.512 339.494 315.32 339.277 315.066L339.19 314.953L338.41 315.593C339.93 317.483 341.23 319.623 342.26 322.023C342.47 322.503 342.02 323.113 341.49 322.793C331.35 316.763 320.31 314.203 308.64 316.643C298.14 318.833 288.64 325.493 285.56 336.153C282.73 345.963 284.81 357.273 291.16 365.343C300.55 377.303 315.8 376.223 329.48 376.773C332.16 376.883 335.15 378.183 336.4 380.743C337.87 383.763 337.77 385.823 336.4 388.833C336.21 389.263 335.96 389.653 335.67 390.003C336.828 390.961 337.924 392.01 338.992 393.079L342.564 396.677C345.007 399.144 347.437 401.633 349.78 404.183C356.66 411.683 363.13 419.663 369.22 427.813L369.782 428.574C376.916 438.332 384.315 452.424 396.68 455.503C400.92 456.563 404.86 458.653 406.12 463.243C407.38 467.833 404.41 472.283 400.42 474.203C393.5 477.533 384.72 473.573 379.01 469.373C366.696 460.302 358.651 445.504 351.087 432.477L349.016 428.917C345.121 422.195 341.316 415.394 338.07 408.333C336.22 404.303 334.23 400.303 332.51 396.213C332.01 395.023 331.51 393.813 331.12 392.573C330.57 392.693 330.01 392.773 329.48 392.803C312.97 393.883 293.96 391.263 282.03 378.733C265.58 361.463 263.65 330.583 282.34 314.103C284.31 312.363 286.53 310.833 288.93 309.523C285.59 303.873 283.38 297.323 281.75 291.173C279.37 282.193 278.04 273.043 277.38 263.783C276.05 244.893 278.26 225.663 282.8 207.313C299.26 140.803 349.8 85.6731 417.32 69.9931ZM297.75 345.983C294.483 327.034 332.4 341.046 340.668 342.367L340.91 342.403C350.394 343.719 345.108 360.355 335.774 355.4L335.49 355.243C330.441 352.349 324.886 350.275 319.59 347.824L318.46 347.293C314.25 345.273 300.34 336.203 298.83 345.983C298.75 346.523 297.84 346.513 297.75 345.983Z" fill="black"/>
<path fill-rule="evenodd" clip-rule="evenodd" d="M524.587 437.927C517.864 435.184 511.866 430.61 507.481 424.766C505.957 422.735 505.561 420.59 505.881 418.628C506.241 416.421 507.546 414.422 509.326 413.081C511.112 411.735 513.345 411.072 515.504 411.41C517.381 411.704 519.248 412.731 520.727 414.862L521.035 415.288C523.642 418.815 527.04 421.709 530.91 423.574C534.641 425.372 538.814 426.211 543.132 425.723C551.356 424.794 557.024 420.346 563.049 414.307C563.796 413.544 564.543 412.758 565.294 411.959C565.768 411.234 566.426 410.769 567.157 410.524C567.968 410.253 568.886 410.269 569.726 410.562C570.537 410.845 571.262 411.381 571.747 412.095C572.209 412.773 572.471 413.61 572.386 414.574C571.835 420.833 568.562 426.419 563.914 430.805C558.752 435.677 551.909 439.047 545.466 440.229C538.368 441.531 531.136 440.598 524.587 437.927ZM548.814 341.367C556.366 345.957 567.872 356.66 559.748 368.04C550.186 378.073 536.418 366.569 529.634 361.366C523.343 357.334 516.275 367.704 522.112 372.413C571.136 408.708 591.031 342.567 552.634 335.97C548.406 335.243 546.836 339.947 548.814 341.367ZM460.963 299.146C461.798 288.79 477.57 286.438 479.139 296.686C480.544 305.866 478.89 314.299 474.755 322.564C470.804 330.46 460.874 326.777 460.123 319.587C459.116 309.949 460.444 305.589 460.963 299.146ZM581.027 294.561C583.226 291.681 586.401 289.715 590.205 290.826C602.09 294.299 598.587 311.172 594.413 319.385C592.145 323.845 584.814 324.976 581.501 321.049C576.101 314.645 573.515 301.856 580.38 295.548C580.566 295.222 580.773 294.893 581.027 294.561ZM474.588 253.83L476.465 253.502C482.273 252.497 489.494 251.532 493.603 256.201C495.782 258.677 496.532 263.279 493.603 265.649C488.451 269.819 482.755 268.203 476.581 268.556C471.493 268.848 466.603 269.69 461.702 271.091C450.95 274.164 442.189 279.774 433.006 285.934C431.801 286.742 430.571 285.201 431.146 284.074C436.447 273.691 446.72 265.162 457.01 259.963C462.502 257.188 468.512 254.886 474.588 253.83ZM570.193 249.179L571.63 249.473C587.267 252.742 607.583 259.271 614.988 274.631C615.271 276.803 614.972 277.268 614.73 277.572L614.649 277.673C614.45 277.933 614.29 278.291 613.349 278.587C613.087 278.525 612.824 278.459 612.557 278.389C609.163 277.499 606.477 276.274 603.877 275.002L601.058 273.613C597.788 272.01 594.488 270.465 590.992 269.324C583.53 266.89 575.854 265.175 568.06 264.26C566.37 264.061 564.744 263.491 563.46 262.514C562.242 261.587 561.311 260.302 560.887 258.595C560.337 256.386 560.495 254.714 561.68 252.721C562.572 251.224 563.847 250.187 565.311 249.591C566.804 248.984 568.503 248.841 570.193 249.179Z" fill="black"/>
<path fill-rule="evenodd" clip-rule="evenodd" d="M464.725 444.193C472.821 425.226 490.492 411.286 510.836 406.189C525.777 402.456 541.456 402.576 556.686 404.057C564.665 404.828 573.224 405.46 580.744 408.423C587.165 410.955 592.398 415.74 596.333 421.357C601.017 428.013 604.202 435.631 606.439 443.439C606.757 444.549 607.056 445.668 607.334 446.792C606.362 452.683 604.296 457.697 598.84 461.401C593.515 465.018 587.161 466.498 580.827 467.023C580.206 466.725 579.606 466.419 579.056 466.104C569.186 460.454 562.239 447.102 549.782 448.909C538.665 450.523 531.346 464.511 524.735 472.714C503.513 475.186 482.307 468.809 465.04 456.674C464.163 452.521 464.113 448.332 464.725 444.193ZM621.758 429.805C620.06 425.041 617.922 420.427 615.388 416.08C607.009 401.706 594.146 390.252 578.876 383.705C542.754 368.239 496.016 379.142 466.845 404.508C456.88 413.179 446.805 425.922 443.758 439.628C442.848 439.808 441.989 440.282 441.282 440.949C420.206 427.679 398.502 414.913 381.518 396.519C369.185 383.155 360.606 367.339 355.353 349.959C354.924 348.529 352.617 348.738 352.687 350.321C352.707 350.691 352.727 351.061 352.747 351.431C352.527 350.75 351.488 351.101 351.408 351.761C348.582 372.874 345.047 395.258 348.302 416.48C350.25 429.144 356.002 438.415 363.692 448.426C371.931 459.156 381.259 469.137 390.796 478.708C396.848 484.783 403.17 491.791 410.58 496.246C419.198 501.421 428.975 505.356 438.173 509.35C447.531 513.424 457.028 517.188 466.705 520.451C486.049 526.998 506.043 531.523 526.386 533.505C542.674 535.087 561.289 536.81 576.899 530.682C588.863 525.987 598.52 517.499 606.18 507.287C614.519 496.166 621.111 483.497 624.755 470.138C628.542 456.261 622.556 432.042 621.758 429.805Z" fill="black"/>
</svg>
