<svg width="376" height="537" viewBox="0 0 376 537" fill="none" xmlns="http://www.w3.org/2000/svg">
<path fill-rule="evenodd" clip-rule="evenodd" d="M294.28 306.339C290.407 304.959 286.675 303.364 283.274 301.018C273.472 293.722 267.08 282.741 261.04 272.337C252.533 257.206 246.472 241.082 242.283 224.262C240.483 217.035 239.871 208.656 235.781 202.249C226.51 188.833 199.322 190.572 184.885 192.927C175.218 194.637 173.22 205.456 171.024 213.462C169.196 220.114 167.999 226.841 166.994 233.658C164.604 235.23 161.906 236.506 159.333 237.617C131.303 246.213 126.377 262.147 115.67 286.761C97.5878 322.537 48.5206 336.545 41.1089 378.885C36.3335 406.838 49.9132 433.135 63.9139 456.373C76.9527 481.756 95.1557 493.938 124.145 487.942C151.335 481.842 177.466 471.639 204.178 463.755C217.115 460.574 230.032 452.3 243.642 455.185C271.683 461.483 300.495 464.444 329.233 463.626C369.582 465.258 369.576 426.532 365.434 396.542C362.534 349.871 338.993 319.903 294.28 306.339V306.339Z" fill="#EDB98A"/>
<path fill-rule="evenodd" clip-rule="evenodd" d="M296.977 373.872C300.349 376.102 303.185 379.482 305.461 383.04C295.957 382.051 286.47 380.911 277.004 379.614C278.244 378.822 279.494 378.047 280.774 377.316C285.441 374.686 291.765 370.426 296.977 373.872ZM139.082 401.964C137.341 401.282 136.667 398.627 135.989 397.105C133.861 392.333 131.919 387.479 129.898 382.66C137.57 380.473 145.03 378.047 152.977 376.881C161.523 375.629 170.194 375.326 178.818 375.607C196.287 376.177 213.593 379.032 230.767 382.093C247.922 385.151 265.075 388.088 282.349 390.394C299.273 392.652 316.251 394.305 333.26 395.757C336.565 396.039 342.075 397.227 344.733 394.627C346.837 392.567 346.906 388.768 344.272 387.094C342.632 386.05 340.256 386.035 338.382 385.794C336.022 385.49 333.653 385.288 331.279 385.131C330.312 385.067 329.345 385.008 328.377 384.949C336.144 382.021 344.255 380.424 352.675 380.869C353.152 383.762 355.297 386.738 356.471 389.123C358.521 393.288 360.12 397.504 361.169 402.032C363.362 411.499 363.457 421.323 362.838 430.978C362.269 439.028 361.047 447.932 354.732 453.633C349.952 457.949 343.207 459.548 336.949 460.05C329.676 460.634 322.291 460.011 315.079 459.036C304.963 457.668 294.801 455.859 284.884 453.435C265.678 448.741 247.268 441.271 230.284 431.143C222.001 426.204 214.097 420.648 205.7 415.897C197.144 411.055 188.04 407.299 178.481 404.967C167.783 402.357 156.599 401.243 145.603 401.887C143.695 401.999 140.938 402.691 139.082 401.964ZM126.685 397.118C127.809 400.766 128.669 404.931 131.069 407.997C133.446 411.034 137.031 412.106 140.746 412.377C145.225 412.702 149.756 412.493 154.245 412.66C163.451 413.002 172.531 414.497 181.331 417.24C189.533 419.797 197.146 423.784 204.48 428.208C211.261 432.299 217.844 436.69 224.628 440.769C222.822 441.597 221.037 442.492 219.243 443.271C215.478 444.906 211.69 446.483 207.886 448.021C200.383 451.054 192.849 454.012 185.237 456.761C169.89 462.303 154.289 467.146 138.501 471.271C130.972 473.238 123.335 475.536 115.512 475.863C108.575 476.153 102.15 474.192 96.5552 470.068C84.9514 461.513 75.7194 449.166 68.2564 436.986C63.8226 429.75 59.9533 422.147 56.753 414.286C55.1343 410.311 53.6663 406.274 52.345 402.19C51.7252 400.273 51.1374 398.345 50.5809 396.408C50.3361 395.556 50.1016 394.701 49.8692 393.846C61.7348 390.225 73.7413 386.957 86.0296 385.142C92.5905 384.173 99.2388 383.683 105.871 383.754C109.164 383.789 112.454 383.967 115.729 384.307C117.492 384.49 119.247 384.725 120.995 385.017C121.718 385.137 122.46 385.314 123.205 385.445C124.342 389.343 125.489 393.237 126.685 397.118ZM371.962 381.62C372.601 380.327 372.871 379.054 373.1 377.646C373.275 376.572 373.739 375.059 373.332 373.665C372.877 372.102 371.638 370.705 370.749 369.373C369.766 367.901 368.785 366.427 367.805 364.953C365.844 362.005 363.888 359.054 361.934 356.101C353.958 344.043 346.036 331.95 338.102 319.865C331.061 309.14 324.138 298.319 316.883 287.738C310.679 278.69 303.916 269.792 295.424 262.755C284.687 253.858 271.901 249.667 258.546 246.396C257.088 244.882 255.139 244.056 253.057 244.223C250.115 240.886 247.776 238.556 246.716 234.312C246.208 232.28 246.368 226.569 244.388 225.366C242.037 223.937 240.809 225.828 240.16 227.96C237.991 235.09 240.481 244.676 246.211 251.819C243.797 260.162 240.596 272.02 234.886 278.705C228.771 285.862 220.315 288.09 211.192 288.237C193.793 288.517 176.412 282.05 163.141 270.844C159.107 267.438 155.361 263.633 151.971 259.588C149.429 256.552 146.422 251.868 144.433 248.327C144.433 246.947 142.804 245.504 159.389 244.39C175.975 243.275 177.233 220.565 177.601 217.475C177.901 214.965 179.175 211.069 177.407 209.023C176.656 208.154 175.116 208.014 174.165 208.604C172.37 209.719 171.781 212.568 171.217 214.503C170.426 217.214 167.843 234.037 162.948 235.985C160.657 236.897 158.028 236.914 155.604 237.082C152.611 237.291 149.611 237.444 146.63 237.793C145.53 237.921 144.331 238.277 143.246 238.287C142.54 238.294 141.812 237.951 141.129 237.71C138.826 236.896 136.526 237.507 134.153 237.826C113.179 240.644 91.5822 247.078 73.6918 258.653C57.9231 268.856 46.8138 283.529 39.4832 300.685C32.0038 318.193 27.7166 337.125 24.1238 355.763C22.9203 362.008 21.8693 368.281 20.9663 374.576C20.0936 380.659 19.002 386.878 18.7407 393.023C18.6372 395.454 19.2182 397.712 20.1123 399.933C21.1192 402.432 23.4991 403.418 25.7818 404.585C30.7926 407.148 36.0786 409.136 41.5247 410.544C44.8517 416.596 47.6517 422.885 49.9018 429.412C49.067 431.066 49.0496 433.536 48.8891 435.144C48.4909 439.147 48.3205 443.171 48.2849 447.192C48.2131 455.252 48.6978 463.304 49.0777 471.352C49.463 479.514 50.7437 511.718 50.9524 515.651C51.1147 518.706 50.8962 522.979 52.5055 525.691C54.9786 529.86 61.0824 529.719 63.9096 526.339C134.153 541.44 266.191 536.892 319.37 529.294C326.289 528.306 324.116 529.402 325.876 527.654C327.196 526.341 328.32 524.093 328.685 522.287C329.173 519.875 328.385 517.693 327.005 515.742C325.553 513.69 325.289 510.368 324.75 507.929C323.475 502.163 322.841 476.839 322.245 474.033C322.06 473.158 321.88 472.234 321.664 471.309C331.418 472.233 341.582 472.233 350.862 468.97C356.125 467.12 361.032 464.214 364.81 460.065C369.384 455.041 371.929 448.716 373.238 442.114C374.927 433.601 375.285 424.783 374.954 416.129C374.493 405.901 372.796 395.529 368.586 386.138C369.971 384.852 371.133 383.3 371.962 381.62Z" fill="#181717"/>
<path fill-rule="evenodd" clip-rule="evenodd" d="M280.603 100.475C285.677 96.8307 278.112 84.8412 275.541 81.2738C273.305 76.6201 271.07 71.966 268.833 67.3119C269.105 63.4953 265.378 60.0996 261.695 61.2607C258.491 58.9629 253.125 60.063 251.497 63.6607C216.069 48.2309 154.77 54.6499 151.6 102.262C144.747 115.818 137.955 129.49 131.875 143.412C123.439 143.865 119.349 154.114 124.372 160.737C125.04 171.493 131.859 172.344 140.962 171.865C144.618 172.828 148.407 173.35 151.149 176.173C153.232 178.302 154.649 181.002 156.015 183.622C162.323 195.709 170.337 206.165 181.199 214.527C198.092 227.169 220.96 236.246 242.025 230.092C287.311 212.308 296.205 141.234 280.603 100.475V100.475Z" fill="#EDB98A"/>
<path fill-rule="evenodd" clip-rule="evenodd" d="M186.093 31.2115C215.68 24.3398 248.919 33.5615 269.454 56.2813C270.898 57.8777 270.742 59.9557 269.472 61.3024C270.065 61.784 270.644 62.279 271.233 62.774C271.848 63.2957 271.759 64.3436 271.233 64.8743C270.711 65.396 269.628 65.503 269.133 64.8743L268.4 63.9521C268.035 63.4914 267.674 63.029 267.327 62.5555C266.903 62.7115 266.488 62.8765 266.074 63.0371C272.348 67.2064 277.578 72.7448 281.164 79.4114C285.043 86.622 287.518 94.3186 289.128 102.327C291.997 116.614 292.414 131.266 292.03 145.794L292.008 146.572C291.514 164.083 289.806 181.885 282.421 197.987C276.499 210.892 265.975 222.758 252.781 228.408C245.182 231.659 237.013 233.045 228.759 232.466C224.407 232.162 220.068 231.476 215.831 230.428L214.814 230.175C210.955 229.208 206.952 228.088 203.658 225.879C200.278 223.61 202.556 219.101 206.284 219.65C210.775 220.314 215.051 222.187 219.506 223.159C223.862 224.114 228.273 224.613 232.736 224.484C240.634 224.261 247.826 221.835 254.355 217.429C279.313 200.578 282.345 166.696 282.996 139.317C283.313 125.939 282.822 112.387 279.746 99.3174C276.789 86.7513 271.701 74.3769 264.499 63.6435C262.912 64.2366 261.325 64.7316 259.634 64.8876C256.622 66.6986 253.039 66.7465 249.556 66.7472L249.071 66.7471C245.445 66.7427 241.82 66.5286 238.212 66.2031C225.446 65.0705 212.309 62.1987 199.475 64.027L198.951 64.1036C193.666 64.8984 187.118 66.5662 183.239 70.368C179.047 74.4705 181.856 82.2341 185.174 84.7C187.319 86.2964 187.988 89.8906 185.174 91.3398C179.618 94.2071 166.169 92.6152 164.657 94.2027C162.842 96.1003 162.969 98.9922 162.917 101.455L162.914 101.618C162.726 108.628 162.9 115.616 163.493 122.608C164.064 129.368 165.362 136.142 165.652 142.92C165.75 145.154 163.052 145.832 161.576 144.605C161.286 144.365 160.987 144.137 160.688 143.932C158.008 142.032 154.963 141.23 151.694 140.721C151.523 140.694 151.388 140.609 151.292 140.495L151.253 140.445L150.905 140.73C151.583 141.573 152.162 142.527 152.622 143.598C152.715 143.812 152.515 144.084 152.278 143.941C147.757 141.252 142.834 140.11 137.63 141.199C132.948 142.175 128.711 145.145 127.338 149.898C126.076 154.273 127.003 159.316 129.835 162.915C134.022 168.248 140.823 167.767 146.923 168.012C148.118 168.061 149.451 168.641 150.009 169.782C150.664 171.129 150.62 172.048 150.009 173.39C149.924 173.581 149.812 173.755 149.683 173.911C150.2 174.339 150.688 174.806 151.165 175.283L152.757 176.887C153.847 177.988 154.93 179.098 155.975 180.235C159.043 183.579 161.928 187.138 164.644 190.772L164.895 191.111C168.076 195.463 171.375 201.746 176.889 203.119C178.78 203.592 180.537 204.524 181.098 206.571C181.66 208.618 180.336 210.602 178.557 211.458C175.471 212.943 171.556 211.177 169.009 209.304C163.518 205.26 159.931 198.661 156.558 192.852L155.635 191.264C153.898 188.267 152.201 185.234 150.753 182.085C149.928 180.288 149.041 178.504 148.274 176.681C148.051 176.15 147.828 175.61 147.654 175.057C147.409 175.111 147.159 175.147 146.923 175.16C139.561 175.642 131.084 174.473 125.764 168.886C118.428 161.185 117.568 147.415 125.902 140.066C126.78 139.29 127.77 138.608 128.841 138.024C127.351 135.504 126.366 132.583 125.639 129.841C124.578 125.836 123.985 121.756 123.69 117.627C123.097 109.204 124.083 100.628 126.107 92.4457C133.447 62.7873 155.984 38.2036 186.093 31.2115ZM132.774 154.282C131.317 145.832 148.225 152.081 151.912 152.669L152.02 152.685C156.249 153.273 153.892 160.691 149.73 158.481L149.603 158.411C147.351 157.121 144.874 156.196 142.513 155.103L142.009 154.866C140.131 153.965 133.929 149.921 133.255 154.282C133.22 154.523 132.814 154.518 132.774 154.282Z" fill="#181717"/>
<path fill-rule="evenodd" clip-rule="evenodd" d="M233.926 195.282C230.928 194.059 228.253 192.019 226.298 189.413C225.618 188.507 225.442 187.551 225.584 186.676C225.745 185.692 226.327 184.8 227.121 184.202C227.917 183.602 228.913 183.307 229.876 183.457C230.712 183.588 231.545 184.047 232.204 184.997L232.342 185.187C233.505 186.759 235.019 188.05 236.746 188.882C238.409 189.683 240.27 190.057 242.195 189.84C245.863 189.426 248.39 187.442 251.077 184.749C251.41 184.409 251.743 184.058 252.078 183.702C252.289 183.379 252.583 183.171 252.909 183.062C253.27 182.942 253.68 182.948 254.054 183.079C254.416 183.205 254.739 183.444 254.956 183.763C255.162 184.065 255.278 184.439 255.241 184.868C254.995 187.659 253.535 190.15 251.463 192.106C249.161 194.279 246.109 195.781 243.236 196.308C240.071 196.889 236.846 196.473 233.926 195.282V195.282ZM244.729 152.224C248.097 154.27 253.227 159.043 249.605 164.117C245.341 168.592 239.202 163.462 236.176 161.142C233.371 159.344 230.219 163.968 232.822 166.068C254.683 182.252 263.554 152.759 246.432 149.817C244.547 149.493 243.847 151.59 244.729 152.224ZM205.554 133.396C205.926 128.778 212.96 127.73 213.66 132.299C214.286 136.393 213.549 140.153 211.705 143.839C209.943 147.36 205.515 145.717 205.18 142.511C204.731 138.213 205.323 136.269 205.554 133.396ZM259.094 131.352C260.074 130.068 261.49 129.191 263.186 129.686C268.486 131.235 266.924 138.759 265.063 142.421C264.051 144.41 260.782 144.915 259.305 143.164C256.897 140.308 255.744 134.605 258.805 131.792C258.888 131.647 258.98 131.5 259.094 131.352ZM211.63 113.189L212.467 113.042C215.057 112.595 218.277 112.164 220.109 114.246C221.081 115.35 221.415 117.403 220.109 118.459C217.812 120.319 215.272 119.598 212.519 119.756C210.25 119.886 208.069 120.261 205.884 120.886C201.089 122.256 197.182 124.758 193.088 127.505C192.55 127.865 192.002 127.178 192.258 126.675C194.622 122.045 199.203 118.242 203.792 115.924C206.241 114.686 208.921 113.66 211.63 113.189ZM254.262 111.115L254.903 111.246C261.876 112.704 270.936 115.615 274.238 122.464C274.364 123.433 274.231 123.64 274.123 123.776L274.087 123.821C273.998 123.937 273.926 124.097 273.507 124.228C273.39 124.201 273.273 124.171 273.154 124.14C271.64 123.743 270.442 123.197 269.283 122.63L268.026 122.011C266.568 121.296 265.096 120.606 263.537 120.098C260.21 119.012 256.787 118.248 253.311 117.84C252.558 117.751 251.833 117.497 251.26 117.061C250.717 116.648 250.302 116.075 250.113 115.314C249.868 114.329 249.938 113.583 250.467 112.694C250.864 112.027 251.433 111.564 252.086 111.299C252.751 111.028 253.509 110.964 254.262 111.115Z" fill="#181717"/>
<path fill-rule="evenodd" clip-rule="evenodd" d="M207.232 198.076C210.842 189.618 218.722 183.402 227.794 181.129C234.456 179.465 241.448 179.518 248.239 180.179C251.797 180.522 255.614 180.804 258.967 182.125C261.831 183.254 264.164 185.388 265.919 187.893C268.007 190.861 269.428 194.258 270.426 197.74C270.567 198.235 270.7 198.734 270.825 199.235C270.391 201.862 269.47 204.098 267.037 205.75C264.662 207.363 261.829 208.022 259.005 208.257C258.728 208.124 258.46 207.987 258.215 207.847C253.813 205.327 250.716 199.373 245.161 200.179C240.203 200.899 236.94 207.136 233.992 210.794C224.528 211.897 215.072 209.053 207.372 203.642C206.981 201.79 206.959 199.922 207.232 198.076M277.256 191.66C276.499 189.536 275.546 187.478 274.416 185.54C270.679 179.13 264.943 174.023 258.134 171.103C242.027 164.206 221.185 169.068 208.177 180.379C203.733 184.246 199.241 189.928 197.882 196.04C197.476 196.121 197.093 196.332 196.778 196.629C187.38 190.712 177.701 185.019 170.128 176.817C164.628 170.858 160.803 163.805 158.46 156.055C158.269 155.417 157.24 155.51 157.271 156.216C157.28 156.381 157.289 156.546 157.298 156.711C157.2 156.408 156.737 156.564 156.701 156.859C155.441 166.273 153.864 176.255 155.316 185.718C156.185 191.365 158.75 195.499 162.179 199.963C165.853 204.748 170.012 209.199 174.265 213.467C176.964 216.176 179.783 219.301 183.087 221.288C186.93 223.595 191.29 225.35 195.392 227.131C199.564 228.948 203.799 230.626 208.115 232.082C216.741 235.001 225.656 237.019 234.728 237.903C241.991 238.608 250.292 239.376 257.253 236.644C262.588 234.55 266.894 230.765 270.31 226.211C274.028 221.252 276.968 215.603 278.593 209.645C280.282 203.457 277.612 192.658 277.256 191.66" fill="#181717"/>
</svg>
