<svg width="474" height="579" viewBox="0 0 474 579" fill="none" xmlns="http://www.w3.org/2000/svg">
<path fill-rule="evenodd" clip-rule="evenodd" d="M405.263 225.318C416.641 217.146 399.675 190.259 393.911 182.259C388.897 171.823 383.883 161.386 378.868 150.949C379.478 142.39 371.12 134.775 362.861 137.379C355.676 132.226 343.642 134.693 339.99 142.761C260.543 108.159 123.077 122.554 115.968 229.326C100.6 259.726 85.3683 290.386 71.7333 321.607C52.8153 322.623 43.6453 345.606 54.9083 360.459C56.4073 384.578 71.6983 386.487 92.1123 385.414C100.31 387.573 108.808 388.743 114.956 395.074C119.629 399.849 122.805 405.904 125.87 411.779C140.015 438.885 157.986 462.333 182.346 481.084C220.229 509.435 271.511 529.79 318.749 515.989C420.306 476.107 440.25 316.721 405.263 225.318Z" fill="#EDB98A"/>
<path fill-rule="evenodd" clip-rule="evenodd" d="M193.32 69.9931C259.67 54.5831 334.21 75.2631 380.26 126.213C383.5 129.793 383.15 134.453 380.3 137.473C381.63 138.553 382.93 139.663 384.25 140.773C385.63 141.943 385.43 144.293 384.25 145.483C383.08 146.653 380.65 146.893 379.54 145.483L377.897 143.415C377.079 142.382 376.27 141.345 375.49 140.283C374.54 140.633 373.61 141.003 372.68 141.363C386.75 150.713 398.48 163.133 406.52 178.083C415.22 194.253 420.77 211.513 424.38 229.473C430.815 261.511 431.748 294.369 430.888 326.948L430.84 328.693C429.73 367.963 425.9 407.883 409.34 443.993C396.06 472.933 372.46 499.543 342.87 512.213C325.83 519.503 307.51 522.613 289 521.313C279.24 520.633 269.51 519.093 260.01 516.743L257.728 516.176C249.073 514.009 240.098 511.496 232.71 506.543C225.13 501.453 230.24 491.343 238.6 492.573C248.67 494.063 258.26 498.263 268.25 500.443C278.02 502.583 287.91 503.703 297.92 503.413C315.63 502.913 331.76 497.473 346.4 487.593C402.37 449.803 409.17 373.823 410.63 312.423C411.34 282.423 410.24 252.033 403.34 222.723C396.71 194.543 385.3 166.793 369.15 142.723C365.59 144.053 362.03 145.163 358.24 145.513C351.484 149.574 343.45 149.682 335.638 149.683L334.55 149.683C326.42 149.673 318.29 149.193 310.2 148.463C281.57 145.923 252.11 139.483 223.33 143.583L222.154 143.755C210.304 145.537 195.62 149.277 186.92 157.803C177.52 167.003 183.82 184.413 191.26 189.943C196.07 193.523 197.57 201.583 191.26 204.833C178.8 211.263 148.64 207.693 145.25 211.253C141.18 215.508 141.465 221.994 141.348 227.516L141.34 227.883C140.92 243.603 141.31 259.273 142.64 274.953C143.92 290.113 146.83 305.303 147.48 320.503C147.7 325.513 141.65 327.033 138.34 324.283C137.69 323.743 137.02 323.233 136.35 322.773C130.34 318.513 123.51 316.713 116.18 315.573C115.795 315.512 115.494 315.32 115.277 315.066L115.19 314.953L114.41 315.593C115.93 317.483 117.23 319.623 118.26 322.023C118.47 322.503 118.02 323.113 117.49 322.793C107.35 316.763 96.3097 314.203 84.6397 316.643C74.1397 318.833 64.6397 325.493 61.5597 336.153C58.7297 345.963 60.8097 357.273 67.1597 365.343C76.5497 377.303 91.7997 376.223 105.48 376.773C108.16 376.883 111.15 378.183 112.4 380.743C113.87 383.763 113.77 385.823 112.4 388.833C112.21 389.263 111.96 389.653 111.67 390.003C112.828 390.961 113.924 392.01 114.992 393.079L118.564 396.677C121.007 399.144 123.437 401.633 125.78 404.183C132.66 411.683 139.13 419.663 145.22 427.813L145.782 428.574C152.916 438.332 160.315 452.424 172.68 455.503C176.92 456.563 180.86 458.653 182.12 463.243C183.38 467.833 180.41 472.283 176.42 474.203C169.5 477.533 160.72 473.573 155.01 469.373C142.696 460.302 134.651 445.504 127.087 432.477L125.016 428.917C121.121 422.195 117.316 415.394 114.07 408.333C112.22 404.303 110.23 400.303 108.51 396.213C108.01 395.023 107.51 393.813 107.12 392.573C106.57 392.693 106.01 392.773 105.48 392.803C88.9697 393.883 69.9597 391.263 58.0297 378.733C41.5797 361.463 39.6497 330.583 58.3397 314.103C60.3097 312.363 62.5297 310.833 64.9297 309.523C61.5897 303.873 59.3797 297.323 57.7497 291.173C55.3697 282.193 54.0397 273.043 53.3797 263.783C52.0497 244.893 54.2597 225.663 58.7997 207.313C75.2597 140.803 125.8 85.6731 193.32 69.9931ZM73.7498 345.983C70.4828 327.034 108.4 341.046 116.668 342.367L116.91 342.403C126.394 343.719 121.108 360.355 111.774 355.4L111.49 355.243C106.441 352.349 100.886 350.275 95.5904 347.824L94.4598 347.293C90.2498 345.273 76.3398 336.203 74.8298 345.983C74.7498 346.523 73.8398 346.513 73.7498 345.983Z" fill="black"/>
<path fill-rule="evenodd" clip-rule="evenodd" d="M300.587 437.927C293.864 435.184 287.866 430.61 283.481 424.766C281.957 422.735 281.561 420.59 281.881 418.628C282.241 416.421 283.546 414.422 285.326 413.081C287.112 411.735 289.345 411.072 291.504 411.41C293.381 411.704 295.248 412.731 296.727 414.862L297.035 415.288C299.642 418.815 303.04 421.709 306.91 423.574C310.641 425.372 314.814 426.211 319.132 425.723C327.356 424.794 333.024 420.346 339.049 414.307C339.796 413.544 340.543 412.758 341.294 411.959C341.768 411.234 342.426 410.769 343.157 410.524C343.968 410.253 344.886 410.269 345.726 410.562C346.537 410.845 347.262 411.381 347.747 412.095C348.209 412.773 348.471 413.61 348.386 414.574C347.835 420.833 344.562 426.419 339.914 430.805C334.752 435.677 327.909 439.047 321.466 440.229C314.368 441.531 307.136 440.598 300.587 437.927ZM324.814 341.367C332.366 345.957 343.872 356.66 335.748 368.04C326.186 378.073 312.418 366.569 305.634 361.366C299.343 357.334 292.275 367.704 298.112 372.413C347.136 408.708 367.031 342.567 328.634 335.97C324.406 335.243 322.836 339.947 324.814 341.367ZM236.963 299.146C237.798 288.79 253.57 286.438 255.139 296.686C256.544 305.866 254.89 314.299 250.755 322.564C246.804 330.46 236.874 326.777 236.123 319.587C235.116 309.949 236.444 305.589 236.963 299.146ZM357.027 294.561C359.226 291.681 362.401 289.715 366.205 290.826C378.09 294.299 374.587 311.172 370.413 319.385C368.145 323.845 360.814 324.976 357.501 321.049C352.101 314.645 349.515 301.856 356.38 295.548C356.566 295.222 356.773 294.893 357.027 294.561ZM250.588 253.83L252.465 253.502C258.273 252.497 265.494 251.532 269.603 256.201C271.782 258.677 272.532 263.279 269.603 265.649C264.451 269.819 258.755 268.203 252.581 268.556C247.493 268.848 242.603 269.69 237.702 271.091C226.95 274.164 218.189 279.774 209.006 285.934C207.801 286.742 206.571 285.201 207.146 284.074C212.447 273.691 222.72 265.162 233.01 259.963C238.502 257.188 244.512 254.886 250.588 253.83ZM346.193 249.179L347.63 249.473C363.267 252.742 383.583 259.271 390.988 274.631C391.271 276.803 390.972 277.268 390.73 277.572L390.649 277.673C390.45 277.933 390.29 278.291 389.349 278.587C389.087 278.525 388.824 278.459 388.557 278.389C385.163 277.499 382.477 276.274 379.877 275.002L377.058 273.613C373.788 272.01 370.488 270.465 366.992 269.324C359.53 266.89 351.854 265.175 344.06 264.26C342.37 264.061 340.744 263.491 339.46 262.514C338.242 261.587 337.311 260.302 336.887 258.595C336.337 256.386 336.495 254.714 337.68 252.721C338.572 251.224 339.847 250.187 341.311 249.591C342.804 248.984 344.503 248.841 346.193 249.179Z" fill="black"/>
<path fill-rule="evenodd" clip-rule="evenodd" d="M240.725 444.193C248.821 425.226 266.492 411.286 286.836 406.189C301.777 402.456 317.456 402.576 332.686 404.057C340.665 404.828 349.224 405.46 356.744 408.423C363.165 410.955 368.398 415.74 372.333 421.357C377.017 428.013 380.202 435.631 382.439 443.439C382.757 444.549 383.056 445.668 383.334 446.792C382.362 452.683 380.296 457.697 374.84 461.401C369.515 465.018 363.161 466.498 356.827 467.023C356.206 466.725 355.606 466.419 355.056 466.104C345.186 460.454 338.239 447.102 325.782 448.909C314.665 450.523 307.346 464.511 300.735 472.714C279.513 475.186 258.307 468.809 241.04 456.674C240.163 452.521 240.113 448.332 240.725 444.193ZM397.758 429.805C396.06 425.041 393.922 420.427 391.388 416.08C383.009 401.706 370.146 390.252 354.876 383.705C318.754 368.239 272.016 379.142 242.845 404.508C232.88 413.179 222.805 425.922 219.758 439.628C218.848 439.808 217.989 440.282 217.282 440.949C196.206 427.679 174.502 414.913 157.518 396.519C145.185 383.155 136.606 367.339 131.353 349.959C130.924 348.529 128.617 348.738 128.687 350.321C128.707 350.691 128.727 351.061 128.747 351.431C128.527 350.75 127.488 351.101 127.408 351.761C124.582 372.874 121.047 395.258 124.302 416.48C126.25 429.144 132.002 438.415 139.692 448.426C147.931 459.156 157.259 469.137 166.796 478.708C172.848 484.783 179.17 491.791 186.58 496.246C195.198 501.421 204.975 505.356 214.173 509.35C223.531 513.424 233.028 517.188 242.705 520.451C262.049 526.998 282.043 531.523 302.386 533.505C318.674 535.087 337.289 536.81 352.899 530.682C364.863 525.987 374.52 517.499 382.18 507.287C390.519 496.166 397.111 483.497 400.755 470.138C404.542 456.261 398.556 432.042 397.758 429.805Z" fill="black"/>
</svg>
